# xmcd
#
# Track frame offsets:
# 150
# 18301
# 32591
# 53187
# 72835
# 88461
# 100498
# 110721
# 124213
# 137218
# 150591
#
# Disc length: 2330 seconds
#
#
# Revision: 0
# Processed by: cddbd v1.5.2PL0 Copyright (c) Steve Scherf et al.
# Submitted via: Nero 7, 11, 10, 0 
#
DISCID=9b09180b
DTITLE=The Tomcats - The Tomcats
DYEAR=1900
DGENRE=Blues
TTITLE0=Country Boy
TTITLE1=Night Cat
TTITLE2=Pretty Baby
TTITLE3=House Party
TTITLE4=Come Back Home
TTITLE5=Talking Trash
TTITLE6=Lynn's Boogie
TTITLE7=I Got My Eyes On You
TTITLE8=Hey Now Mama
TTITLE9=Tom Cat Boogie
TTITLE10=I'm So Blue
EXTD=
EXTT0=Country Boy
EXTT1=Night Cat
EXTT2=Pretty Baby
EXTT3=House Party
EXTT4=Come Back Home
EXTT5=Talking Trash
EXTT6=Lynn's Boogie
EXTT7=I Got My Eyes On You
EXTT8=Hey Now Mama
EXTT9=Tom Cat Boogie
EXTT10=I'm So Blue
PLAYORDER=
